<svg xmlns="http://www.w3.org/2000/svg" version="1.1" xmlns:xlink="http://www.w3.org/1999/xlink" xmlns:svgjs="http://svgjs.dev/svgjs" width="1500" height="1500" viewBox="0 0 1500 1500"><rect width="1500" height="1500" fill="#ffffff"></rect><g transform="matrix(0.6666666666666666,0,0,0.6666666666666666,249.39393939393938,481.02646331057304)"><svg viewBox="0 0 396 213" data-background-color="#ffffff" preserveAspectRatio="xMidYMid meet" height="806" width="1500" xmlns="http://www.w3.org/2000/svg" xmlns:xlink="http://www.w3.org/1999/xlink"><g id="tight-bounds" transform="matrix(1,0,0,1,0.2400000000000091,0.12164388619348188)"><svg viewBox="0 0 395.52 212.75671222761304" height="212.75671222761304" width="395.52"><g><svg viewBox="0 0 395.52 212.75671222761304" height="212.75671222761304" width="395.52"><g><svg viewBox="0 0 395.52 212.75671222761304" height="212.75671222761304" width="395.52"><g id="textblocktransform"><svg viewBox="0 0 395.52 212.75671222761304" height="212.75671222761304" width="395.52" id="textblock"><g><svg viewBox="0 0 395.52 116.29233466135457" height="116.29233466135457" width="395.52"><g transform="matrix(1,0,0,1,0,0)"><svg width="395.52" viewBox="1.8 -35.9 125.49000000000001 36.9" height="116.29233466135457" data-palette-color="#ff5c40"><path d="M17.1 1L17.1 1Q10.55 1 6.18-4.05 1.8-9.1 1.8-15.7L1.8-15.7Q1.8-19.8 3.6-23.6 5.4-27.4 8.22-30.05 11.05-32.7 14.48-34.3 17.9-35.9 21.1-35.9L21.1-35.9Q27.6-35.9 32-30.85 36.4-25.8 36.4-19.2L36.4-19.2Q36.4-14.3 33.75-9.63 31.1-4.95 26.58-1.98 22.05 1 17.1 1ZM20.2-2.8L20.2-2.8Q25.65-2.8 29.38-6.8 33.1-10.8 33.1-16.7 33.1-22.6 28.78-27.3 24.45-32 18.3-32L18.3-32Q13.05-32 9.08-28.23 5.1-24.45 5.1-19.2L5.1-19.2Q5.1-12.4 9.28-7.6 13.45-2.8 20.2-2.8ZM80-1.4L80 0 71.3 0 71.3-1.4 71.5-1.4Q72.05-1.4 72.42-1.95 72.8-2.5 72.8-3.3L72.8-3.3 72.8-16Q72.8-18 71.82-19.3 70.85-20.6 69.32-20.6 67.8-20.6 66.52-19.9 65.25-19.2 64.47-18.2 63.7-17.2 63.1-16.1L63.1-16.1Q62.1-14.15 62.1-13.2L62.1-13.2 62.1-3.4Q62.1-1.4 64.3-1.4L64.3-1.4 65.2-1.4 65.2 0 56.5 0 56.5-1.4 56.8-1.4Q57.25-1.4 57.62-1.95 58-2.5 58-3.3L58-3.3 58-16Q58-18 57.05-19.3 56.1-20.6 54.47-20.6 52.85-20.6 51.4-19.55 49.95-18.5 49.1-17.1L49.1-17.1Q47.4-14.25 47.4-13.1L47.4-13.1 47.4-3.6Q47.4-2.8 47.47-2.45 47.55-2.1 48.05-1.75 48.55-1.4 49.6-1.4L49.6-1.4 50.5-1.4 50.5 0 40.4 0 40.4-1.4 41.2-1.4Q42.55-1.4 42.92-1.85 43.3-2.3 43.3-3.3L43.3-3.3 43.3-18.3Q43.3-19.25 42.67-19.68 42.05-20.1 40.4-20.1L40.4-20.1 40.4-21.5Q41.4-21.5 43.42-22.23 45.45-22.95 46.5-23.6L46.5-23.6 47.4-23.8 47.4-17.4Q48.85-20.8 50.87-22.4 52.9-24 56.4-24L56.4-24Q58-24 59.2-23.33 60.4-22.65 61-21.55L61-21.55Q62-19.6 62.1-17.4L62.1-17.4Q63.25-20.75 65.35-22.38 67.45-24 71-24L71-24Q72.8-24 74.05-23.2 75.3-22.4 75.85-21.15L75.85-21.15Q76.8-19 76.8-16.9L76.8-16.9 76.8-3.4Q76.8-2.7 76.9-2.35L76.9-2.35Q77.15-1.4 79-1.4L79-1.4 80-1.4ZM105.5-1.4L105.5 0 98.3 0 98.3-4Q95.8-1.3 94.15-0.3 92.5 0.7 89.67 0.7 86.85 0.7 85.27-0.63 83.7-1.95 83.7-4.35 83.7-6.75 85.77-9.03 87.85-11.3 90.62-12.48 93.4-13.65 95.5-14.28 97.6-14.9 98.3-14.9L98.3-14.9 98.3-16Q98.3-20.7 94.4-20.7L94.4-20.7Q91.7-20.7 89.37-19.55 87.05-18.4 85.9-16.6L85.9-16.6 84.9-17.5Q88.25-24 96.5-24L96.5-24Q98.6-24 99.97-22.88 101.35-21.75 101.82-20.25 102.3-18.75 102.3-16.9L102.3-16.9 102.3-3.4Q102.3-2.75 102.4-2.4 102.5-2.05 103.02-1.73 103.55-1.4 104.6-1.4L104.6-1.4 105.5-1.4ZM98.3-6.8L98.3-6.8 98.3-12.9Q94.4-12.15 91.05-9.9 87.7-7.65 87.7-5L87.7-5Q87.7-3.95 88.72-3.18 89.75-2.4 91.27-2.4 92.8-2.4 94.9-3.78 97-5.15 98.3-6.8ZM120.19-1.4L120.19 0 109.39 0 109.39-1.4 110.19-1.4Q111.54-1.4 111.92-1.85 112.29-2.3 112.29-3.3L112.29-3.3 112.29-18.3Q112.29-19.25 111.67-19.68 111.04-20.1 109.39-20.1L109.39-20.1 109.39-21.5Q110.39-21.5 112.42-22.23 114.44-22.95 115.49-23.6L115.49-23.6 116.39-23.8 116.39-17.6Q118.19-21.55 120.49-22.83 122.79-24.1 127.29-24.1L127.29-24.1 126.99-18.3 125.49-18.3Q125.49-19 124.97-19.65 124.44-20.3 123.29-20.3L123.29-20.3Q120.79-20.3 118.59-17.6 116.39-14.9 116.39-12.4L116.39-12.4 116.39-3.6Q116.39-2.8 116.47-2.45 116.54-2.1 117.04-1.75 117.54-1.4 118.59-1.4L118.59-1.4 120.19-1.4Z" opacity="1" transform="matrix(1,0,0,1,0,0)" fill="#000000" class="wordmark-text-0" data-fill-palette-color="primary" id="text-0"></path></svg></g></svg></g><g transform="matrix(1,0,0,1,163.310208,143.74616385886853)"><svg viewBox="0 0 232.209792 69.01054836874451" height="69.01054836874451" width="232.209792"><g transform="matrix(1,0,0,1,0,0)"><svg width="232.209792" viewBox="2.15 -32.57 111.22 33.06" height="69.01054836874451" data-palette-color="#ff5c40"><path d="M16.99-30.52L16.99-30.52Q12.35-30.52 9.67-26.46 6.98-22.41 6.98-17.09L6.98-17.09Q6.98-13.18 8.25-9.72 9.52-6.25 12.21-3.93 14.89-1.61 18.51-1.61L18.51-1.61Q21.63-1.61 23.97-3.64 26.32-5.66 27.42-8.67 28.52-11.67 28.52-15.09L28.52-15.09Q28.52-18.99 27.25-22.44 25.98-25.88 23.29-28.2 20.61-30.52 16.99-30.52ZM6.71-4.35Q2.15-9.18 2.15-16.02 2.15-22.85 6.71-27.71 11.28-32.57 17.72-32.57 24.17-32.57 28.76-27.71 33.35-22.85 33.35-16.02 33.35-9.18 28.76-4.35 24.17 0.49 17.72 0.49 11.28 0.49 6.71-4.35ZM51.17-21.39L51.17-21.39Q53.12-21.39 54.42-20.34 55.71-19.29 56.2-17.92L56.2-17.92Q59.86-21.39 63.77-21.39L63.77-21.39Q69.92-21.39 69.92-12.01L69.92-12.01 69.92-6.59Q69.92-3.76 70.31-2.25L70.31-2.25Q70.41-1.9 71.58-1.59 72.75-1.27 73.24-1.27L73.24-1.27Q73.39-1.27 73.44-0.68 73.48-0.1 73.39 0.15L73.39 0.15Q68.5-0.1 68.16-0.1L68.16-0.1Q67.87-0.1 62.84 0.15L62.84 0.15Q62.64-0.05 62.64-0.66 62.64-1.27 62.84-1.27L62.84-1.27Q63.43-1.27 64.57-1.59 65.72-1.9 65.82-2.25L65.82-2.25Q66.16-3.66 66.16-5.37L66.16-5.37 66.16-10.89Q66.16-18.41 61.23-18.41L61.23-18.41Q59.42-18.41 58.1-17.36 56.78-16.31 56.78-15.63L56.78-15.63 56.83-15.43Q56.83-15.23 56.83-15.19L56.83-15.19Q57.03-13.96 57.03-11.67L57.03-11.67 57.03-6.15Q57.03-3.76 57.42-2.25L57.42-2.25Q57.52-1.9 58.69-1.59 59.86-1.27 60.35-1.27L60.35-1.27Q60.5-1.27 60.54-0.68 60.59-0.1 60.5 0.15L60.5 0.15Q55.61-0.1 55.27-0.1L55.27-0.1Q54.98-0.1 49.95 0.15L49.95 0.15Q49.75-0.05 49.75-0.66 49.75-1.27 49.95-1.27L49.95-1.27Q50.53-1.27 51.68-1.59 52.83-1.9 52.93-2.25L52.93-2.25Q53.27-3.66 53.27-5.66L53.27-5.66 53.27-10.64Q53.27-18.41 48.58-18.41L48.58-18.41Q47.12-18.41 45.63-17.31 44.14-16.21 44.14-15.19L44.14-15.19 44.14-6.59Q44.14-3.76 44.53-2.25L44.53-2.25Q44.63-1.9 45.8-1.59 46.97-1.27 47.46-1.27L47.46-1.27Q47.6-1.27 47.65-0.68 47.7-0.1 47.6 0.15L47.6 0.15Q42.72-0.1 42.38-0.1L42.38-0.1Q42.09-0.1 37.06 0.15L37.06 0.15Q36.86-0.05 36.86-0.66 36.86-1.27 37.06-1.27L37.06-1.27Q37.64-1.27 38.79-1.59 39.94-1.9 40.04-2.25L40.04-2.25Q40.38-3.66 40.38-5.66L40.38-5.66 40.38-14.89Q40.38-16.8 39.69-17.53L39.69-17.53Q39.21-18.12 38.5-18.33 37.79-18.55 37.33-18.55 36.86-18.55 36.86-18.65L36.86-18.65Q36.86-19.82 37.16-19.87L37.16-19.87Q42.33-20.65 43.89-21.14L43.89-21.14Q43.94-21.14 44.04-21.17 44.14-21.19 44.14-21.19L44.14-21.19Q44.33-21.19 44.38-20.78 44.43-20.36 44.38-20.17L44.38-20.17Q44.19-18.8 44.19-18.21L44.19-18.21Q44.19-18.02 44.28-18.02L44.28-18.02Q44.33-18.02 44.43-18.12L44.43-18.12Q45.55-19.29 47.48-20.34 49.41-21.39 51.17-21.39ZM81.44-3.15Q82.27-2.44 83.59-2.44 84.91-2.44 86.13-3.25 87.35-4.05 87.35-4.88L87.35-4.88 87.35-9.91Q86.96-9.72 85.44-9.23 83.93-8.74 83.08-8.37 82.22-8.01 81.42-7.15 80.61-6.3 80.61-5.18L80.61-5.18Q80.61-3.86 81.44-3.15ZM86.03-21.29L86.03-21.29Q88.72-21.29 89.89-20 91.06-18.7 91.06-15.82L91.06-15.82 91.06-4.54Q91.06-3.52 91.6-2.83 92.13-2.15 93.06-2.15L93.06-2.15Q93.75-2.15 94.77-2.83L94.77-2.83Q94.97-2.83 94.97-2.44L94.97-2.44Q94.97-1.81 94.72-1.42L94.72-1.42Q92.72 0.29 91.3 0.29L91.3 0.29Q90.18 0.29 89.16-0.63 88.13-1.56 87.74-2.59L87.74-2.59Q87.69-2.59 87.37-2.27 87.06-1.95 86.52-1.54 85.98-1.12 85.27-0.68 84.57-0.24 83.61 0.05 82.66 0.34 81.68 0.34L81.68 0.34Q79.44 0.34 77.97-0.85 76.51-2.05 76.51-4.44L76.51-4.44Q76.51-5.52 77.05-6.47 77.58-7.42 78.32-8.03 79.05-8.64 80.32-9.28 81.59-9.91 82.49-10.23 83.39-10.55 84.86-11.04 86.32-11.52 86.91-11.77L86.91-11.77Q87.35-11.91 87.35-12.5L87.35-12.5 87.35-16.16Q87.35-17.72 86.37-18.58 85.4-19.43 84.03-19.43L84.03-19.43Q82.56-19.43 81.59-18.43 80.61-17.43 80.61-15.82L80.61-15.82Q80.61-14.11 78.61-14.11L78.61-14.11Q77.24-14.11 76.7-15.04L76.7-15.04Q76.7-17.14 79.78-19.21 82.86-21.29 86.03-21.29ZM109.56-21.34L109.56-21.34Q112.44-21.34 113.37-19.92L113.37-19.92Q113.37-18.21 112.83-17.43 112.3-16.65 111.52-16.65L111.52-16.65Q110.64-16.65 109.9-17.48 109.17-18.31 107.9-18.31L107.9-18.31Q106.39-18.31 105.27-16.89 104.14-15.48 104.14-13.92L104.14-13.92 104.14-6.59Q104.14-3.76 104.53-2.25L104.53-2.25Q104.63-1.9 105.83-1.59 107.02-1.27 107.51-1.27L107.51-1.27Q107.66-1.27 107.71-0.68 107.76-0.1 107.66 0.15L107.66 0.15Q102.78-0.1 102.39-0.1L102.39-0.1Q102.09-0.1 97.06 0.15L97.06 0.15Q96.87-0.05 96.87-0.66 96.87-1.27 97.06-1.27L97.06-1.27Q97.65-1.27 98.8-1.59 99.94-1.9 100.04-2.25L100.04-2.25Q100.38-3.66 100.38-5.66L100.38-5.66 100.38-14.89Q100.38-16.8 99.7-17.53L99.7-17.53Q99.21-18.12 98.5-18.33 97.8-18.55 97.33-18.55 96.87-18.55 96.87-18.65L96.87-18.65Q96.87-19.82 97.16-19.87L97.16-19.87Q102.34-20.65 103.9-21.14L103.9-21.14Q103.95-21.14 104.05-21.17 104.14-21.19 104.14-21.19L104.14-21.19Q104.34-21.19 104.39-20.78 104.44-20.36 104.39-20.17L104.39-20.17 104.09-17.72Q104.97-19.04 106.51-20.19 108.05-21.34 109.56-21.34Z" opacity="1" transform="matrix(1,0,0,1,0,0)" fill="#000000" class="slogan-text-1" data-fill-palette-color="secondary" id="text-1"></path></svg></g></svg></g></svg></g></svg></g></svg></g><defs></defs></svg><rect width="395.52" height="212.75671222761304" fill="none" stroke="none" visibility="hidden"></rect></g></svg></g></svg>